# xmcd
#
# Track frame offsets:
#	150
#	12547
#	27250
#	38212
#	48022
#	58500
#	72845
#	93272
#	106880
#	119337
#	132200
#	144052
#	159657
#
# Disc length: 2310
#
# Revision: 2
# Processed by: cddbd v1.5.1PL0 Copyright (c) Steve Scherf et al.
# Submitted via: CD-DA_X-Tractor v0.23
# Normalized: r0:TSWAP
#
DISCID=a309040d
DTITLE=Various Artist - Original Artists - Original Hits Blues Disk 2
DYEAR=1997
DGENRE=
TTITLE0=Elmore James - The Sun is Shining
TTITLE1=Bobby Bland - Stormy Monday Blues
TTITLE2=Howlin' Wolf - Little Red Rooster
TTITLE3=Chuck Berry - Confessin' the Blues
TTITLE4=Buddy Guy - First Time I met the Blues
TTITLE5=Lowell Fulson - Reconsider Baby
TTITLE6=John Lee Hooker - This Land is Nobody's Land
TTITLE7=John Lee Hooker - One Bourbon, One Scotch, One Beer
TTITLE8=Little Walter - Juke
TTITLE9=Big Mama Thornton - Hound Dog
TTITLE10=Sonny Boy Williamson - Bring It On Home
TTITLE11=Eddie Boyd - 24 Hours
TTITLE12=Robert Nighthawk - Sweet Black Angel
EXTD=
EXTT0=
EXTT1=
EXTT2=
EXTT3=
EXTT4=
EXTT5=
EXTT6=
EXTT7=
EXTT8=
EXTT9=
EXTT10=
EXTT11=
EXTT12=
PLAYORDER=
